# xmcd
#
# Track frame offsets:
#	150
#	14313
#	29405
#	44120
#	56570
#	70378
#	83763
#	99393
#	113468
#	127610
#
# Disc length: 1910 seconds
#
# Revision: 3
# Processed by: cddbd v1.5.2PL0 Copyright (c) Steve Scherf et al.
# Submitted via: audiograbber 1.83.01
#
DISCID=7907740a
DTITLE=Linda Davis - Shoot For The Moon
DYEAR=1994
DGENRE=Oldies
TTITLE0=Shoot For The Moon
TTITLE1=Company Time
TTITLE2=If Promises Were Gold
TTITLE3=Love Didn't Do It
TTITLE4=He's In Dallas
TTITLE5=When You Took Your Love Away
TTITLE6=How Can I Make You Love Me
TTITLE7=Don't You Want My Love
TTITLE8=In Pictures
TTITLE9=A FamilyTie
EXTD=
EXTT0=
EXTT1=
EXTT2=
EXTT3=
EXTT4=
EXTT5=
EXTT6=
EXTT7=
EXTT8=
EXTT9=
PLAYORDER=
